<svg id="svg" xmlns="http://www.w3.org/2000/svg" xmlns:xlink="http://www.w3.org/1999/xlink" width="400" height="400" viewBox="0, 0, 400,400" version="1.1"><g id="svgg"><path id="path0" d="M205.772 145.921 C 205.667 146.026,203.403 146.132,200.740 146.157 C 198.077 146.183,194.492 146.470,192.773 146.796 C 191.055 147.122,189.094 147.405,188.416 147.425 C 187.738 147.445,187.265 147.593,187.365 147.754 C 187.465 147.915,187.244 148.047,186.874 148.047 C 186.142 148.047,182.721 148.999,180.345 149.863 C 179.526 150.161,178.691 150.303,178.490 150.179 C 178.289 150.055,178.125 150.121,178.125 150.325 C 178.125 150.529,177.729 150.797,177.246 150.919 C 176.763 151.042,175.155 151.940,173.673 152.915 C 172.191 153.890,170.821 154.688,170.629 154.688 C 170.437 154.688,170.067 154.868,169.808 155.089 C 167.831 156.772,162.905 160.046,162.668 159.833 C 162.507 159.689,162.484 159.762,162.618 159.997 C 162.751 160.232,162.078 161.010,161.122 161.727 C 160.166 162.443,159.290 163.325,159.175 163.687 C 158.887 164.594,156.396 166.806,156.031 166.478 C 155.868 166.331,155.848 166.411,155.988 166.655 C 156.127 166.899,155.965 167.328,155.628 167.608 C 154.743 168.343,148.047 177.335,148.047 177.789 C 148.047 177.999,147.844 178.046,147.596 177.892 C 147.334 177.731,147.250 177.784,147.396 178.020 C 147.534 178.244,147.149 179.545,146.540 180.913 C 144.917 184.556,144.790 184.909,144.886 185.488 C 144.936 185.786,144.785 185.899,144.542 185.749 C 144.244 185.564,144.193 185.813,144.377 186.549 C 144.528 187.150,144.492 187.522,144.295 187.400 C 144.103 187.281,143.912 188.265,143.871 189.588 C 143.830 190.910,143.758 193.135,143.710 194.531 C 143.663 195.928,143.684 197.861,143.757 198.828 C 143.830 199.795,143.746 201.465,143.571 202.539 C 143.077 205.563,143.223 207.818,144.130 211.230 C 144.370 212.130,144.335 212.504,144.011 212.512 C 143.748 212.520,143.818 212.726,144.177 213.001 C 144.519 213.262,145.028 214.171,145.307 215.020 C 145.587 215.869,146.240 217.522,146.758 218.694 C 147.509 220.393,147.597 220.895,147.190 221.171 C 146.823 221.420,146.895 221.485,147.447 221.403 C 148.250 221.284,149.904 223.707,149.969 225.098 C 149.987 225.490,150.307 225.781,150.719 225.781 C 151.114 225.781,151.638 226.222,151.884 226.761 C 152.129 227.300,152.904 228.374,153.606 229.148 C 155.409 231.134,161.719 237.433,161.719 237.247 C 161.719 237.161,162.157 237.378,162.692 237.729 C 163.227 238.080,163.566 238.528,163.444 238.724 C 163.323 238.921,163.368 239.047,163.545 239.004 C 164.177 238.851,165.987 239.965,165.744 240.358 C 165.605 240.583,165.738 240.673,166.049 240.563 C 166.681 240.341,168.037 241.582,167.643 242.022 C 167.500 242.182,167.606 242.184,167.879 242.027 C 168.169 241.860,168.858 242.147,169.537 242.718 C 170.176 243.256,171.054 243.809,171.488 243.946 C 171.922 244.084,172.177 244.358,172.056 244.555 C 171.934 244.752,172.135 244.797,172.505 244.656 C 172.996 244.467,173.089 244.537,172.855 244.916 C 172.673 245.212,172.689 245.339,172.893 245.212 C 173.089 245.091,173.860 245.248,174.606 245.562 C 175.616 245.986,175.823 246.217,175.421 246.466 C 175.030 246.707,175.141 246.796,175.819 246.786 C 176.958 246.768,181.006 248.296,181.178 248.808 C 181.245 249.010,181.539 249.083,181.831 248.971 C 182.122 248.860,182.718 248.959,183.154 249.193 C 184.137 249.719,192.619 251.193,193.067 250.916 C 193.247 250.805,193.606 250.871,193.865 251.063 C 194.436 251.485,202.938 251.724,203.567 251.336 C 203.812 251.184,204.912 251.021,206.010 250.974 C 207.109 250.927,208.711 250.706,209.570 250.483 C 210.430 250.260,211.396 250.087,211.719 250.098 C 212.041 250.109,213.447 249.680,214.844 249.145 C 218.613 247.702,221.208 246.871,221.940 246.873 C 222.298 246.874,222.650 246.697,222.723 246.481 C 222.795 246.264,223.273 246.005,223.785 245.907 C 224.297 245.808,225.000 245.471,225.346 245.157 C 225.693 244.844,226.768 244.216,227.734 243.763 C 232.913 241.334,237.945 237.373,241.205 233.163 C 244.344 229.107,245.858 227.393,246.144 227.570 C 246.326 227.683,246.392 227.546,246.290 227.266 C 246.022 226.528,248.364 222.955,248.899 223.286 C 249.156 223.445,249.232 223.384,249.080 223.139 C 248.938 222.908,249.084 222.456,249.405 222.135 C 249.726 221.814,250.712 219.998,251.596 218.100 C 252.480 216.202,253.373 214.324,253.581 213.928 C 253.789 213.532,254.044 212.495,254.149 211.624 C 254.254 210.753,254.701 209.334,255.141 208.471 C 257.670 203.514,257.315 194.784,254.263 186.846 C 253.422 184.660,252.734 182.409,252.734 181.844 C 252.734 181.279,252.232 179.815,251.618 178.592 C 249.168 173.711,248.395 171.869,248.635 171.481 C 248.773 171.257,248.723 171.123,248.523 171.182 C 248.323 171.241,247.318 170.059,246.291 168.555 C 245.264 167.051,243.399 164.606,242.148 163.123 C 240.897 161.639,239.982 160.233,240.116 159.998 C 240.250 159.763,240.222 159.695,240.053 159.846 C 239.605 160.251,237.071 158.197,237.371 157.671 C 237.511 157.427,237.481 157.357,237.306 157.516 C 236.868 157.912,235.885 157.042,236.197 156.536 C 236.345 156.298,236.259 156.246,235.992 156.411 C 235.733 156.571,234.440 155.927,233.002 154.922 C 229.629 152.564,224.140 149.749,221.484 149.014 C 218.030 148.059,210.486 146.527,208.789 146.437 C 207.930 146.391,206.942 146.213,206.594 146.042 C 206.247 145.871,205.876 145.816,205.772 145.921 " stroke="none" fill="#000000" fill-rule="evenodd"></path></g></svg>