<svg id="svg" xmlns="http://www.w3.org/2000/svg" xmlns:xlink="http://www.w3.org/1999/xlink" width="48" height="48" viewBox="0, 0, 400, 400"><g id="svgg"><path id="path0" d="M185.742 28.028 C 183.379 28.082,158.066 28.170,129.492 28.223 L 77.539 28.320 77.441 199.122 L 77.343 369.923 201.074 369.825 L 324.805 369.727 325.000 241.797 C 325.107 171.436,325.151 94.577,325.096 71.000 L 324.997 28.134 257.770 28.127 C 220.795 28.124,190.430 28.078,190.291 28.025 C 190.153 27.973,188.105 27.974,185.742 28.028 M316.797 39.453 C 316.797 41.780,316.695 42.194,316.113 42.233 C 315.462 42.276,315.462 42.287,316.113 42.457 C 316.851 42.649,317.121 44.922,316.406 44.922 C 316.191 44.922,316.016 45.108,316.016 45.336 C 316.016 45.563,316.191 45.641,316.406 45.508 C 316.656 45.353,316.810 46.717,316.833 49.293 C 317.009 68.793,317.006 68.932,316.398 69.531 C 316.071 69.854,315.974 69.985,316.183 69.824 C 316.392 69.663,316.659 69.531,316.777 69.531 C 317.122 69.531,316.950 94.749,316.601 95.313 C 316.408 95.625,316.439 95.729,316.680 95.580 C 316.945 95.416,317.029 105.509,316.936 126.314 C 316.859 143.353,316.773 176.438,316.744 199.838 C 316.714 223.238,316.614 241.987,316.521 241.504 C 316.293 240.320,315.820 240.386,315.820 241.602 C 315.820 242.139,316.040 242.578,316.309 242.578 C 316.689 242.578,316.790 245.264,316.766 254.785 C 316.749 261.499,316.646 266.771,316.537 266.501 C 316.282 265.869,315.625 266.269,315.625 267.057 C 315.625 267.434,315.846 267.577,316.211 267.437 C 316.730 267.238,316.797 272.621,316.797 314.449 L 316.797 361.686 301.563 361.700 C 289.679 361.711,286.321 361.608,286.297 361.228 C 286.275 360.870,286.217 360.864,286.078 361.205 C 285.724 362.074,268.598 361.914,268.901 361.045 C 269.130 360.387,269.116 360.386,268.610 361.035 C 268.153 361.622,267.394 361.717,263.238 361.706 C 258.985 361.695,258.487 361.627,259.127 361.142 C 259.850 360.594,259.562 360.556,257.422 360.917 C 257.314 360.935,257.490 361.128,257.813 361.345 C 258.230 361.627,257.555 361.722,255.469 361.676 C 253.857 361.641,252.286 361.416,251.976 361.177 C 251.543 360.843,251.482 360.858,251.715 361.245 C 252.095 361.877,249.177 361.789,248.736 361.155 C 248.546 360.880,248.447 360.902,248.443 361.219 C 248.439 361.556,247.832 361.647,246.387 361.527 C 245.259 361.434,243.018 361.254,241.406 361.127 C 235.076 360.628,221.967 355.729,222.904 354.213 C 223.054 353.969,222.988 353.896,222.750 354.044 C 221.952 354.537,215.033 348.689,215.507 347.922 C 215.638 347.709,215.559 347.651,215.332 347.791 C 213.728 348.783,206.269 334.190,207.174 331.831 C 207.286 331.539,207.168 331.231,206.912 331.145 C 206.046 330.857,206.258 263.462,207.125 263.530 C 207.498 263.560,207.717 263.443,207.611 263.272 C 207.505 263.100,208.342 262.233,209.471 261.345 C 210.600 260.457,211.821 259.485,212.185 259.185 C 212.549 258.884,214.747 257.192,217.068 255.424 C 219.390 253.656,221.377 252.108,221.484 251.983 C 222.295 251.047,225.084 249.224,225.404 249.422 C 225.622 249.557,225.752 249.483,225.693 249.258 C 225.590 248.863,252.001 227.831,253.113 227.423 C 253.286 227.360,254.076 227.748,254.868 228.285 C 263.686 234.269,277.205 230.925,282.552 221.438 C 283.265 220.172,283.950 219.236,284.073 219.359 C 284.196 219.483,284.275 219.352,284.249 219.069 C 284.223 218.786,284.409 217.588,284.661 216.406 C 285.766 211.246,285.408 207.189,283.478 202.986 C 282.900 201.728,282.527 200.537,282.649 200.339 C 282.771 200.142,282.721 200.029,282.539 200.088 C 282.356 200.147,281.069 199.034,279.678 197.614 C 278.287 196.194,276.571 194.736,275.866 194.374 C 275.115 193.989,274.695 193.537,274.852 193.282 C 275.011 193.026,274.944 192.957,274.690 193.115 C 274.452 193.261,273.161 193.011,271.820 192.559 C 268.076 191.298,262.761 191.391,258.958 192.783 C 257.361 193.368,255.632 193.842,255.116 193.836 C 254.546 193.829,254.362 193.940,254.648 194.116 C 254.968 194.314,254.682 194.741,253.752 195.450 C 249.374 198.790,246.828 203.450,245.999 209.643 C 245.707 211.832,245.589 213.547,245.738 213.455 C 245.887 213.363,246.097 213.857,246.205 214.554 C 246.523 216.604,246.888 218.044,247.269 218.757 C 247.715 219.590,247.369 219.923,241.029 224.750 C 238.350 226.789,235.977 228.354,235.755 228.228 C 235.533 228.103,235.478 228.140,235.632 228.310 C 236.019 228.738,230.006 233.624,229.374 233.396 C 229.095 233.295,228.954 233.354,229.061 233.529 C 229.292 233.901,229.169 234.009,223.764 238.187 C 219.805 241.246,218.794 241.892,219.333 241.020 C 219.473 240.794,219.306 240.736,218.933 240.879 C 218.486 241.050,218.431 241.209,218.749 241.406 C 219.048 241.591,218.697 242.106,217.726 242.906 C 216.652 243.792,216.164 243.993,215.942 243.644 C 215.667 243.212,215.471 243.514,215.571 244.216 C 215.643 244.719,213.584 246.085,213.138 245.830 C 212.894 245.692,212.817 245.713,212.967 245.879 C 213.317 246.268,211.067 248.173,210.599 247.884 C 210.404 247.764,210.163 247.971,210.063 248.344 C 209.962 248.718,209.071 249.600,208.082 250.305 L 206.284 251.586 206.275 221.399 L 206.266 191.211 209.841 188.477 C 211.807 186.973,215.305 184.248,217.614 182.422 C 225.399 176.266,227.396 174.804,227.953 174.858 C 228.258 174.888,228.419 174.769,228.312 174.595 C 228.043 174.161,231.435 171.430,232.070 171.568 C 232.352 171.630,232.590 171.462,232.599 171.195 C 232.609 170.928,234.476 169.258,236.747 167.484 C 239.018 165.710,243.279 162.356,246.214 160.032 C 249.389 157.519,251.737 155.921,252.008 156.089 C 252.268 156.249,252.360 156.202,252.222 155.979 C 252.089 155.763,252.434 155.192,252.988 154.709 L 253.997 153.832 256.588 155.013 C 272.450 162.236,289.010 148.564,284.583 131.902 C 284.250 130.649,284.095 129.418,284.239 129.167 C 284.383 128.916,284.356 128.842,284.179 129.002 C 284.002 129.163,283.029 128.002,282.018 126.423 C 281.006 124.844,279.805 123.291,279.349 122.971 C 278.894 122.652,278.607 122.275,278.713 122.133 C 278.819 121.991,278.793 121.959,278.654 122.062 C 278.516 122.165,277.593 121.671,276.603 120.965 C 261.263 110.015,240.816 125.876,247.064 143.879 L 247.990 146.546 246.749 147.677 C 246.066 148.299,245.279 148.727,244.999 148.627 C 244.720 148.528,244.590 148.607,244.711 148.803 C 245.021 149.305,242.680 150.890,242.130 150.550 C 241.872 150.391,241.781 150.439,241.919 150.662 C 242.178 151.082,241.913 151.336,237.610 154.785 C 234.803 157.035,234.085 157.456,234.610 156.543 C 234.773 156.259,234.742 156.191,234.535 156.380 C 234.340 156.559,234.180 156.844,234.180 157.013 C 234.180 157.309,231.485 159.569,228.416 161.845 C 227.609 162.444,226.747 162.809,226.500 162.657 C 226.240 162.496,226.157 162.551,226.303 162.786 C 226.643 163.336,223.176 166.141,222.598 165.784 C 222.337 165.623,222.250 165.674,222.392 165.904 C 222.527 166.123,222.087 166.722,221.413 167.234 C 220.740 167.745,218.284 169.658,215.956 171.484 C 213.628 173.311,210.499 175.733,209.003 176.867 L 206.283 178.929 206.260 137.706 C 206.240 100.735,206.300 96.484,206.843 96.484 C 207.572 96.484,211.261 94.673,212.182 93.863 C 212.554 93.536,213.065 93.412,213.354 93.579 C 213.636 93.742,213.736 93.730,213.576 93.554 C 213.415 93.377,214.240 92.229,215.409 91.004 C 220.955 85.189,222.637 74.264,218.885 68.425 C 218.563 67.925,218.399 67.256,218.521 66.940 C 218.642 66.624,218.587 66.461,218.399 66.577 C 218.211 66.694,217.342 65.842,216.468 64.684 C 211.282 57.816,200.185 55.246,192.617 59.160 C 191.938 59.511,191.186 59.675,190.944 59.526 C 190.694 59.372,190.612 59.428,190.753 59.657 C 190.890 59.878,190.293 60.551,189.427 61.151 C 187.534 62.463,185.171 65.214,183.989 67.482 C 183.514 68.393,183.011 69.068,182.871 68.983 C 182.732 68.897,182.594 69.293,182.565 69.863 C 182.536 70.432,182.287 71.426,182.011 72.070 C 181.475 73.324,181.180 81.178,181.645 81.836 C 182.161 82.567,183.165 85.960,182.798 85.733 C 182.576 85.596,182.563 85.860,182.765 86.406 C 182.948 86.900,183.284 87.305,183.513 87.305 C 183.741 87.305,184.496 88.096,185.191 89.063 C 185.886 90.029,186.909 91.250,187.465 91.775 C 188.021 92.300,188.433 92.872,188.379 93.045 C 188.325 93.218,188.413 93.319,188.574 93.270 C 188.995 93.141,191.392 94.628,191.218 94.910 C 191.138 95.039,191.368 95.169,191.728 95.197 C 192.088 95.226,193.350 95.603,194.531 96.035 L 196.680 96.821 196.777 137.887 C 196.855 170.644,196.776 178.894,196.386 178.663 C 196.118 178.504,194.511 177.307,192.815 176.003 C 191.120 174.700,188.960 173.055,188.016 172.349 C 187.019 171.603,186.413 170.882,186.569 170.629 C 186.737 170.357,186.662 170.301,186.371 170.481 C 185.787 170.842,184.684 169.979,185.026 169.427 C 185.167 169.198,185.089 169.136,184.849 169.284 C 184.505 169.497,178.476 165.398,177.734 164.448 C 177.627 164.310,174.375 161.848,170.508 158.976 C 166.641 156.104,163.232 153.513,162.933 153.218 C 162.635 152.922,161.977 152.410,161.472 152.079 C 160.967 151.748,160.638 151.340,160.741 151.173 C 160.844 151.006,160.633 150.630,160.272 150.337 C 159.821 149.971,159.707 149.957,159.909 150.293 C 160.461 151.211,159.450 150.782,157.785 149.391 C 156.870 148.626,155.796 147.773,155.400 147.496 C 154.705 147.009,154.713 146.915,155.607 144.882 C 158.041 139.350,157.679 132.522,154.684 127.445 C 153.792 125.934,153.721 125.621,154.357 126.014 C 154.639 126.188,154.702 126.121,154.526 125.835 C 154.370 125.584,154.095 125.469,153.914 125.581 C 153.529 125.819,151.103 122.886,151.378 122.516 C 151.479 122.378,151.449 122.350,151.310 122.453 C 151.172 122.555,150.225 122.028,149.206 121.280 C 144.890 118.111,138.433 116.866,133.008 118.156 C 131.504 118.514,129.746 118.808,129.102 118.810 C 128.247 118.813,128.120 118.887,128.631 119.086 C 129.330 119.358,126.074 121.360,125.264 121.156 C 125.087 121.111,125.046 121.243,125.173 121.448 C 125.467 121.925,123.829 123.094,123.313 122.775 C 123.096 122.640,123.049 122.734,123.206 122.989 C 123.364 123.244,122.899 124.167,122.143 125.100 C 116.688 131.835,116.674 143.124,122.111 149.587 C 122.666 150.246,122.978 150.967,122.819 151.224 C 122.643 151.510,122.704 151.579,122.982 151.407 C 123.227 151.256,123.914 151.591,124.507 152.154 C 125.100 152.716,126.323 153.615,127.224 154.151 C 128.392 154.847,128.803 155.316,128.652 155.786 C 128.498 156.270,128.539 156.311,128.805 155.940 C 129.098 155.532,129.540 155.570,131.088 156.135 C 134.674 157.444,142.101 157.123,145.593 155.508 L 148.412 154.204 151.159 156.241 C 152.690 157.375,153.793 158.461,153.651 158.691 C 153.510 158.919,153.573 158.995,153.792 158.860 C 154.288 158.553,158.047 161.208,157.900 161.761 C 157.841 161.985,157.950 162.071,158.141 161.952 C 158.332 161.834,159.540 162.568,160.824 163.584 C 162.109 164.599,165.549 167.265,168.469 169.508 C 171.389 171.751,173.746 173.764,173.706 173.982 C 173.666 174.199,173.907 174.386,174.241 174.396 C 175.054 174.420,178.924 177.390,178.673 177.796 C 178.564 177.972,178.704 178.031,178.984 177.927 C 179.263 177.823,180.300 178.484,181.287 179.396 C 182.275 180.308,183.242 181.108,183.436 181.173 C 183.630 181.238,186.724 183.523,190.311 186.251 L 196.833 191.211 196.854 221.789 L 196.875 252.367 195.718 251.512 C 195.082 251.042,194.635 250.538,194.725 250.394 C 194.814 250.249,194.660 250.130,194.383 250.130 C 193.927 250.130,188.099 245.839,183.594 242.187 C 182.627 241.404,180.693 239.937,179.297 238.927 C 177.900 237.918,175.576 236.173,174.132 235.050 C 172.687 233.927,169.474 231.444,166.990 229.532 C 164.506 227.620,162.317 225.775,162.124 225.430 C 161.931 225.086,161.630 224.843,161.453 224.890 C 161.277 224.937,159.779 223.926,158.125 222.644 L 155.118 220.313 155.689 218.945 C 157.424 214.793,157.732 209.115,156.423 205.406 C 156.129 204.574,156.000 203.603,156.136 203.249 C 156.289 202.851,156.226 202.703,155.971 202.861 C 155.566 203.111,154.402 200.899,154.604 200.264 C 154.661 200.087,154.546 200.041,154.349 200.163 C 154.153 200.284,153.733 199.990,153.417 199.508 C 148.898 192.622,137.922 189.620,130.037 193.114 C 119.670 197.708,114.919 210.506,119.933 220.334 C 120.373 221.196,120.610 222.115,120.460 222.377 C 120.310 222.638,120.327 222.725,120.498 222.571 C 120.929 222.182,123.094 224.990,122.783 225.535 C 122.645 225.778,122.670 225.851,122.840 225.698 C 123.125 225.441,127.764 228.728,128.061 229.397 C 128.133 229.559,128.333 229.605,128.507 229.498 C 128.680 229.391,129.673 229.680,130.714 230.141 C 133.174 231.229,138.862 231.575,141.846 230.819 C 143.000 230.527,144.121 230.284,144.336 230.281 C 144.551 230.277,144.814 230.165,144.922 230.033 C 145.970 228.743,148.983 227.936,149.898 228.700 C 150.276 229.017,152.607 230.785,155.078 232.630 C 157.549 234.474,159.592 236.149,159.619 236.351 C 159.646 236.553,159.693 236.938,159.723 237.207 C 159.764 237.571,159.864 237.559,160.116 237.161 C 160.390 236.729,160.683 236.796,161.657 237.516 C 162.319 238.005,162.752 238.580,162.620 238.794 C 162.487 239.008,162.554 239.075,162.767 238.944 C 163.314 238.605,164.911 239.809,164.595 240.321 C 164.440 240.571,164.514 240.634,164.773 240.474 C 165.157 240.236,173.667 246.435,175.974 248.633 C 176.424 249.063,176.921 249.452,177.078 249.499 C 177.919 249.750,180.082 251.745,180.109 252.292 C 180.127 252.660,180.220 252.733,180.329 252.465 C 180.445 252.181,182.027 253.150,184.393 254.954 C 186.524 256.579,188.170 258.067,188.050 258.261 C 187.931 258.455,187.977 258.588,188.155 258.557 C 188.987 258.413,189.474 258.635,189.221 259.045 C 189.044 259.330,189.114 259.389,189.410 259.206 C 189.909 258.898,191.120 259.672,190.842 260.122 C 190.751 260.269,190.857 260.644,191.078 260.956 C 191.402 261.413,191.435 261.385,191.251 260.815 C 191.018 260.098,192.636 260.997,194.057 262.376 C 194.334 262.644,195.086 263.174,195.730 263.554 L 196.900 264.246 196.790 297.650 C 196.671 333.744,196.523 336.288,194.574 335.672 C 194.079 335.516,194.058 335.554,194.475 335.852 C 195.066 336.274,194.717 338.052,194.117 337.681 C 193.920 337.559,193.850 337.697,193.962 337.988 C 194.821 340.226,184.069 353.319,181.371 353.321 C 180.982 353.321,180.664 353.562,180.664 353.857 C 180.664 354.491,175.476 357.397,171.853 358.791 C 169.619 359.650,167.780 360.120,162.695 361.130 C 160.072 361.651,147.656 361.761,147.656 361.264 C 147.656 360.888,147.552 360.885,147.187 361.250 C 146.657 361.781,145.942 361.890,146.249 361.393 C 146.359 361.214,146.194 361.068,145.881 361.068 C 145.568 361.068,145.300 361.258,145.285 361.491 C 145.270 361.724,145.107 361.563,144.922 361.133 C 144.635 360.465,144.582 360.451,144.559 361.035 C 144.524 361.892,139.458 362.086,139.447 361.230 C 139.443 360.897,139.350 360.877,139.154 361.167 C 138.791 361.704,133.072 361.856,133.404 361.319 C 133.534 361.109,133.454 360.937,133.226 360.938 C 132.999 360.938,132.813 361.113,132.813 361.328 C 132.813 361.543,132.461 361.719,132.031 361.719 C 131.602 361.719,131.247 361.499,131.244 361.230 C 131.240 360.881,131.157 360.868,130.951 361.185 C 130.560 361.788,120.706 361.774,120.697 361.170 C 120.694 360.935,120.536 360.988,120.346 361.287 C 120.149 361.598,119.721 361.725,119.351 361.583 C 118.993 361.446,118.809 361.159,118.941 360.945 C 119.079 360.721,118.925 360.654,118.577 360.788 C 118.245 360.915,118.064 361.166,118.175 361.345 C 118.470 361.824,116.653 361.634,116.315 361.152 C 116.127 360.884,116.026 360.911,116.022 361.230 C 116.018 361.499,115.664 361.719,115.234 361.719 C 114.805 361.719,114.450 361.499,114.447 361.230 C 114.443 360.928,114.332 360.891,114.154 361.133 C 113.786 361.634,112.109 361.733,112.109 361.254 C 112.109 361.055,111.899 361.022,111.641 361.181 C 110.924 361.624,109.376 361.600,109.369 361.146 C 109.365 360.880,109.265 360.885,109.076 361.160 C 108.672 361.747,102.401 361.862,101.717 361.294 C 101.341 360.982,101.172 360.974,101.172 361.267 C 101.172 361.562,98.876 361.658,93.652 361.581 L 86.133 361.471 85.923 352.513 C 85.807 347.586,85.674 274.517,85.626 190.137 L 85.539 36.719 201.168 36.719 L 316.797 36.719 316.797 39.453 M99.902 37.385 C 100.386 37.478,101.177 37.478,101.660 37.385 C 102.144 37.292,101.748 37.216,100.781 37.216 C 99.814 37.216,99.419 37.292,99.902 37.385 M103.613 37.379 C 103.989 37.477,104.604 37.477,104.980 37.379 C 105.356 37.280,105.049 37.200,104.297 37.200 C 103.545 37.200,103.237 37.280,103.613 37.379 M114.166 37.390 C 114.759 37.479,115.638 37.477,116.119 37.384 C 116.599 37.292,116.113 37.218,115.039 37.221 C 113.965 37.224,113.572 37.300,114.166 37.390 M121.001 37.386 C 121.487 37.479,122.190 37.476,122.563 37.378 C 122.937 37.280,122.539 37.204,121.680 37.208 C 120.820 37.212,120.515 37.292,121.001 37.386 M132.331 37.392 C 133.033 37.479,134.088 37.478,134.675 37.388 C 135.262 37.299,134.688 37.228,133.398 37.230 C 132.109 37.233,131.629 37.306,132.331 37.392 M138.581 37.392 C 139.283 37.479,140.338 37.478,140.925 37.388 C 141.512 37.299,140.938 37.228,139.648 37.230 C 138.359 37.233,137.879 37.306,138.581 37.392 M155.962 37.390 C 156.556 37.479,157.435 37.477,157.916 37.384 C 158.396 37.292,157.910 37.218,156.836 37.221 C 155.762 37.224,155.369 37.300,155.962 37.390 M159.673 37.386 C 160.158 37.479,160.862 37.476,161.235 37.378 C 161.608 37.280,161.211 37.204,160.352 37.208 C 159.492 37.212,159.187 37.292,159.673 37.386 M163.191 37.392 C 163.893 37.479,164.947 37.478,165.534 37.388 C 166.121 37.299,165.547 37.228,164.258 37.230 C 162.969 37.233,162.488 37.306,163.191 37.392 M171.174 37.399 C 172.615 37.474,175.076 37.474,176.643 37.400 C 178.210 37.325,177.031 37.264,174.023 37.263 C 171.016 37.263,169.734 37.324,171.174 37.399 M181.738 37.389 C 182.329 37.479,183.296 37.479,183.887 37.389 C 184.478 37.300,183.994 37.226,182.813 37.226 C 181.631 37.226,181.147 37.300,181.738 37.389 M186.816 37.389 C 187.407 37.479,188.374 37.479,188.965 37.389 C 189.556 37.300,189.072 37.226,187.891 37.226 C 186.709 37.226,186.226 37.300,186.816 37.389 M196.001 37.386 C 196.487 37.479,197.190 37.476,197.563 37.378 C 197.937 37.280,197.539 37.204,196.680 37.208 C 195.820 37.212,195.515 37.292,196.001 37.386 M199.519 37.392 C 200.221 37.479,201.275 37.478,201.862 37.388 C 202.449 37.299,201.875 37.228,200.586 37.230 C 199.297 37.233,198.817 37.306,199.519 37.392 M208.121 37.399 C 209.472 37.475,211.581 37.475,212.808 37.398 C 214.035 37.320,212.930 37.258,210.352 37.259 C 207.773 37.259,206.770 37.322,208.121 37.399 M215.923 37.386 C 216.408 37.479,217.112 37.476,217.485 37.378 C 217.858 37.280,217.461 37.204,216.602 37.208 C 215.742 37.212,215.437 37.292,215.923 37.386 M219.043 37.385 C 219.526 37.478,220.317 37.478,220.801 37.385 C 221.284 37.292,220.889 37.216,219.922 37.216 C 218.955 37.216,218.560 37.292,219.043 37.385 M226.286 37.399 C 227.745 37.475,230.030 37.474,231.364 37.398 C 232.698 37.322,231.504 37.260,228.711 37.261 C 225.918 37.262,224.827 37.324,226.286 37.399 M236.816 37.389 C 237.407 37.479,238.374 37.479,238.965 37.389 C 239.556 37.300,239.072 37.226,237.891 37.226 C 236.709 37.226,236.226 37.300,236.816 37.389 M243.663 37.396 C 244.581 37.478,245.988 37.477,246.788 37.393 C 247.588 37.309,246.836 37.242,245.117 37.243 C 243.398 37.245,242.744 37.313,243.663 37.396 M251.085 37.396 C 252.003 37.478,253.410 37.477,254.210 37.393 C 255.010 37.309,254.258 37.242,252.539 37.243 C 250.820 37.245,250.166 37.313,251.085 37.396 M259.668 37.385 C 260.151 37.478,260.942 37.478,261.426 37.385 C 261.909 37.292,261.514 37.216,260.547 37.216 C 259.580 37.216,259.185 37.292,259.668 37.385 M264.551 37.398 C 265.786 37.476,267.808 37.476,269.043 37.398 C 270.278 37.321,269.268 37.257,266.797 37.257 C 264.326 37.257,263.315 37.321,264.551 37.398 M273.340 37.397 C 274.468 37.476,276.313 37.476,277.441 37.397 C 278.569 37.318,277.646 37.254,275.391 37.254 C 273.135 37.254,272.212 37.318,273.340 37.397 M281.163 37.396 C 282.081 37.478,283.488 37.477,284.288 37.393 C 285.088 37.309,284.336 37.242,282.617 37.243 C 280.898 37.245,280.244 37.313,281.163 37.396 M290.923 37.386 C 291.408 37.479,292.112 37.476,292.485 37.378 C 292.858 37.280,292.461 37.204,291.602 37.208 C 290.742 37.212,290.437 37.292,290.923 37.386 M294.835 37.396 C 295.753 37.478,297.160 37.477,297.960 37.393 C 298.760 37.309,298.008 37.242,296.289 37.243 C 294.570 37.245,293.916 37.313,294.835 37.396 M302.251 37.386 C 302.737 37.479,303.440 37.476,303.813 37.378 C 304.187 37.280,303.789 37.204,302.930 37.208 C 302.070 37.212,301.765 37.292,302.251 37.386 M306.144 37.391 C 306.837 37.478,308.068 37.479,308.878 37.394 C 309.688 37.310,309.121 37.239,307.617 37.238 C 306.113 37.236,305.450 37.305,306.144 37.391 M76.653 48.438 C 76.653 49.189,76.734 49.497,76.832 49.121 C 76.930 48.745,76.930 48.130,76.832 47.754 C 76.734 47.378,76.653 47.686,76.653 48.438 M197.487 56.599 C 197.368 56.791,197.692 56.923,198.207 56.892 C 198.722 56.861,199.062 56.704,198.963 56.543 C 198.713 56.138,197.749 56.175,197.487 56.599 M201.704 56.522 C 202.126 56.944,203.125 57.003,203.125 56.606 C 203.125 56.410,202.744 56.250,202.279 56.250 C 201.813 56.250,201.555 56.372,201.704 56.522 M316.114 64.258 C 316.118 65.117,316.198 65.423,316.292 64.937 C 316.385 64.451,316.382 63.748,316.284 63.374 C 316.186 63.001,316.110 63.398,316.114 64.258 M316.114 91.992 C 316.118 92.852,316.198 93.157,316.292 92.671 C 316.385 92.185,316.382 91.482,316.284 91.109 C 316.186 90.735,316.110 91.133,316.114 91.992 M315.732 98.047 C 315.765 98.477,315.930 98.828,316.099 98.828 C 316.268 98.828,316.406 98.477,316.406 98.047 C 316.406 97.617,316.241 97.266,316.040 97.266 C 315.838 97.266,315.700 97.617,315.732 98.047 M315.849 110.417 C 315.712 110.775,315.759 111.228,315.954 111.423 C 316.166 111.635,316.309 111.374,316.309 110.771 C 316.309 109.600,316.196 109.514,315.849 110.417 M315.903 125.390 C 315.790 125.820,315.858 126.270,316.052 126.390 C 316.247 126.510,316.406 126.159,316.406 125.609 C 316.406 124.412,316.184 124.315,315.903 125.390 M315.828 129.339 C 316.053 130.506,316.406 130.773,316.406 129.776 C 316.406 129.323,316.240 128.849,316.036 128.724 C 315.831 128.597,315.738 128.871,315.828 129.339 M315.932 137.109 C 315.838 137.754,315.906 138.281,316.083 138.281 C 316.261 138.281,316.406 137.754,316.406 137.109 C 316.406 136.465,316.338 135.938,316.255 135.938 C 316.172 135.938,316.027 136.465,315.932 137.109 M315.875 140.820 C 315.751 141.142,315.800 141.801,315.983 142.285 C 316.264 143.028,316.316 142.937,316.322 141.699 C 316.329 140.114,316.224 139.909,315.875 140.820 M315.932 146.094 C 316.027 146.738,316.172 147.266,316.255 147.266 C 316.338 147.266,316.406 146.738,316.406 146.094 C 316.406 145.449,316.261 144.922,316.083 144.922 C 315.906 144.922,315.838 145.449,315.932 146.094 M76.661 154.883 C 76.665 155.742,76.745 156.048,76.839 155.562 C 76.932 155.076,76.929 154.373,76.831 153.999 C 76.733 153.626,76.657 154.023,76.661 154.883 M315.758 159.983 C 315.630 160.317,315.707 160.976,315.930 161.447 C 316.284 162.198,316.327 162.122,316.273 160.840 C 316.205 159.231,316.108 159.070,315.758 159.983 M76.674 162.695 C 76.677 163.770,76.753 164.163,76.843 163.569 C 76.933 162.975,76.930 162.096,76.837 161.616 C 76.745 161.135,76.671 161.621,76.674 162.695 M315.885 162.760 C 315.504 163.142,315.567 164.453,315.967 164.453 C 316.155 164.453,316.309 164.014,316.309 163.477 C 316.309 162.419,316.278 162.368,315.885 162.760 M315.860 184.311 C 315.749 184.490,315.811 185.150,315.999 185.776 C 316.337 186.907,316.339 186.905,316.373 185.449 C 316.406 184.005,316.255 183.671,315.860 184.311 M315.855 190.569 C 315.631 190.931,315.866 192.559,316.189 192.882 C 316.298 192.990,316.363 192.439,316.333 191.657 C 316.278 190.178,316.202 190.007,315.855 190.569 M315.860 200.326 C 315.749 200.506,315.816 201.165,316.008 201.791 C 316.349 202.900,316.357 202.891,316.302 201.465 C 316.244 199.930,316.190 199.792,315.860 200.326 M76.653 203.906 C 76.653 204.658,76.734 204.966,76.832 204.590 C 76.930 204.214,76.930 203.599,76.832 203.223 C 76.734 202.847,76.653 203.154,76.653 203.906 M315.894 209.909 C 315.725 210.526,315.683 211.126,315.801 211.244 C 316.209 211.651,316.465 211.005,316.333 209.899 L 316.201 208.789 315.894 209.909 M316.106 214.063 C 316.106 214.814,316.187 215.122,316.285 214.746 C 316.383 214.370,316.383 213.755,316.285 213.379 C 316.187 213.003,316.106 213.311,316.106 214.063 M315.778 216.981 C 315.920 217.944,316.406 218.155,316.406 217.253 C 316.406 216.787,316.246 216.406,316.050 216.406 C 315.854 216.406,315.732 216.665,315.778 216.981 M118.910 220.529 C 118.975 221.141,119.248 221.715,119.516 221.805 C 119.863 221.920,119.923 221.700,119.724 221.042 C 119.290 219.612,118.777 219.288,118.910 220.529 M315.625 238.844 C 315.625 239.154,315.801 239.516,316.016 239.648 C 316.230 239.781,316.406 239.528,316.406 239.086 C 316.406 238.643,316.230 238.281,316.016 238.281 C 315.801 238.281,315.625 238.535,315.625 238.844 M315.853 253.418 C 315.734 253.794,315.795 254.629,315.988 255.273 C 316.315 256.364,316.341 256.316,316.373 254.590 C 316.408 252.662,316.223 252.245,315.853 253.418 M315.732 257.422 C 315.765 257.852,315.930 258.203,316.099 258.203 C 316.268 258.203,316.406 257.852,316.406 257.422 C 316.406 256.992,316.241 256.641,316.040 256.641 C 315.838 256.641,315.700 256.992,315.732 257.422 M315.986 259.277 C 315.969 259.438,315.897 259.877,315.825 260.252 C 315.753 260.627,315.855 261.033,316.050 261.154 C 316.246 261.275,316.406 260.837,316.406 260.179 C 316.406 259.152,316.072 258.435,315.986 259.277 M76.653 270.313 C 76.653 271.064,76.734 271.372,76.832 270.996 C 76.930 270.620,76.930 270.005,76.832 269.629 C 76.734 269.253,76.653 269.561,76.653 270.313 M315.817 271.973 C 315.610 272.551,315.767 273.709,316.095 274.038 C 316.223 274.166,316.328 273.644,316.328 272.878 C 316.328 271.454,316.128 271.100,315.817 271.973 M76.653 286.719 C 76.653 287.471,76.734 287.778,76.832 287.402 C 76.930 287.026,76.930 286.411,76.832 286.035 C 76.734 285.659,76.653 285.967,76.653 286.719 M315.830 292.240 C 316.074 293.503,316.406 293.623,316.406 292.448 C 316.406 291.875,316.241 291.406,316.038 291.406 C 315.836 291.406,315.742 291.782,315.830 292.240 M315.838 297.209 C 315.712 297.608,315.771 298.355,315.970 298.869 C 316.281 299.673,316.331 299.572,316.323 298.145 C 316.313 296.332,316.191 296.096,315.838 297.209 M315.779 302.544 C 315.937 306.012,316.328 306.171,316.303 302.758 C 316.293 301.241,316.144 300.000,315.974 300.000 C 315.803 300.000,315.716 301.145,315.779 302.544 M315.799 307.065 C 315.655 307.299,315.732 307.686,315.972 307.925 C 316.291 308.244,316.406 308.131,316.406 307.500 C 316.406 306.557,316.203 306.412,315.799 307.065 M315.733 319.914 C 315.701 320.340,315.802 320.766,315.958 320.863 C 316.113 320.959,316.276 320.611,316.319 320.089 C 316.362 319.567,316.261 319.141,316.094 319.141 C 315.928 319.141,315.765 319.489,315.733 319.914 M315.986 335.254 C 315.834 337.709,315.860 338.381,316.113 338.537 C 316.274 338.636,316.406 337.829,316.406 336.742 C 316.406 335.041,316.072 333.857,315.986 335.254 M76.661 339.258 C 76.665 340.117,76.745 340.423,76.839 339.937 C 76.932 339.451,76.929 338.748,76.831 338.374 C 76.733 338.001,76.657 338.398,76.661 339.258 M315.973 340.137 C 315.758 341.591,315.836 345.016,316.092 345.407 C 316.273 345.684,316.389 344.575,316.357 342.871 C 316.309 340.300,316.133 339.049,315.973 340.137 M182.520 370.582 C 182.896 370.680,183.511 370.680,183.887 370.582 C 184.263 370.484,183.955 370.403,183.203 370.403 C 182.451 370.403,182.144 370.484,182.520 370.582 M204.590 370.588 C 205.073 370.681,205.864 370.681,206.348 370.588 C 206.831 370.495,206.436 370.419,205.469 370.419 C 204.502 370.419,204.106 370.495,204.590 370.588 " stroke="none" fill="#000000" fill-rule="evenodd"></path></g></svg>