<svg id="svg" xmlns="http://www.w3.org/2000/svg" xmlns:xlink="http://www.w3.org/1999/xlink" width="400" height="400" viewBox="0, 0, 400,400"><g id="svgg"><path id="path0" d="M225.781 194.603 C 222.666 194.787,217.832 195.283,215.039 195.705 C 211.057 196.307,208.149 196.461,201.563 196.417 C 196.846 196.385,191.965 196.556,190.430 196.805 C 186.953 197.371,166.397 197.398,164.258 196.839 C 160.557 195.874,148.743 196.087,140.039 197.276 C 131.985 198.377,123.529 198.606,117.773 197.879 C 116.914 197.770,114.541 197.488,112.500 197.251 C 110.459 197.015,106.747 196.482,104.251 196.067 C 97.327 194.915,89.633 194.757,75.781 195.482 C 69.014 195.837,59.258 196.213,54.102 196.317 C 48.945 196.422,42.818 196.695,40.486 196.924 C 38.154 197.154,32.681 197.462,28.323 197.610 C 20.362 197.881,19.141 198.122,19.141 199.424 C 19.141 200.688,25.490 200.943,38.477 200.201 C 40.625 200.079,48.447 199.907,55.859 199.820 C 63.271 199.733,71.621 199.487,74.414 199.273 C 84.894 198.471,100.538 199.231,109.180 200.961 C 110.684 201.262,113.584 201.620,115.625 201.756 C 117.666 201.892,119.863 202.066,120.508 202.144 C 125.558 202.750,127.201 202.728,133.160 201.981 C 136.681 201.539,141.075 200.919,142.925 200.603 C 144.775 200.288,147.168 199.909,148.242 199.762 C 151.446 199.324,160.502 199.436,164.063 199.958 C 169.538 200.760,184.907 201.046,191.797 200.474 C 195.490 200.168,200.289 200.061,204.102 200.201 C 209.177 200.387,211.342 200.285,215.625 199.659 C 226.660 198.045,240.148 197.678,246.094 198.831 C 248.727 199.341,261.114 199.348,264.063 198.841 C 265.270 198.634,272.196 198.545,279.883 198.640 C 287.402 198.732,308.057 198.905,325.781 199.024 C 343.506 199.143,360.697 199.436,363.983 199.675 C 374.952 200.472,380.859 199.755,380.859 197.627 C 380.859 195.468,379.839 195.215,371.586 195.330 C 367.556 195.385,358.633 195.304,351.758 195.148 C 344.883 194.993,327.393 194.914,312.891 194.973 C 298.389 195.033,284.414 195.001,281.836 194.904 C 275.439 194.662,268.996 194.713,258.594 195.090 C 251.397 195.350,248.882 195.293,244.711 194.774 C 239.303 194.102,234.941 194.062,225.781 194.603 " stroke="none" fill="#000000" fill-rule="evenodd"></path></g></svg>